<svg width="21" height="22" viewBox="0 0 21 22" fill="none" xmlns="http://www.w3.org/2000/svg">
<path d="M19.5543 10.8095C19.5543 13.1876 18.6096 15.4683 16.928 17.1499C15.2464 18.8314 12.9657 19.7761 10.5876 19.7761M19.5543 10.8095C19.5543 8.43138 18.6096 6.15068 16.928 4.46911C15.2464 2.78754 12.9657 1.84284 10.5876 1.84284M19.5543 10.8095H1.62097M10.5876 19.7761C8.20951 19.7761 5.92881 18.8314 4.24724 17.1499C2.56567 15.4683 1.62097 13.1876 1.62097 10.8095M10.5876 19.7761C12.2385 19.7761 13.5765 15.7611 13.5765 10.8095C13.5765 5.85791 12.2385 1.84284 10.5876 1.84284M10.5876 19.7761C8.93676 19.7761 7.59873 15.7611 7.59873 10.8095C7.59873 5.85791 8.93676 1.84284 10.5876 1.84284M10.5876 1.84284C8.20951 1.84284 5.92881 2.78754 4.24724 4.46911C2.56567 6.15068 1.62097 8.43138 1.62097 10.8095" stroke="white" stroke-width="2.5619" stroke-linecap="round" stroke-linejoin="round"/>
</svg>
