<svg width="19" height="19" viewBox="0 0 19 19" fill="none" xmlns="http://www.w3.org/2000/svg">
<path d="M2.29114 2.49897C2.53136 2.25875 2.85718 2.12379 3.19691 2.12379H5.75881C6.09853 2.12379 6.42435 2.25875 6.66457 2.49897C6.9048 2.7392 7.03975 3.06501 7.03975 3.40474V5.96664C7.03975 6.30637 6.9048 6.63218 6.66457 6.8724C6.42435 7.11263 6.09853 7.24759 5.75881 7.24759H3.19691C2.85718 7.24759 2.53136 7.11263 2.29114 6.8724C2.05092 6.63218 1.91596 6.30637 1.91596 5.96664V3.40474C1.91596 3.06501 2.05092 2.7392 2.29114 2.49897ZM2.29114 12.7466C2.53136 12.5063 2.85718 12.3714 3.19691 12.3714H5.75881C6.09853 12.3714 6.42435 12.5063 6.66457 12.7466C6.9048 12.9868 7.03975 13.3126 7.03975 13.6523V16.2142C7.03975 16.554 6.9048 16.8798 6.66457 17.12C6.42435 17.3602 6.09853 17.4952 5.75881 17.4952H3.19691C2.85718 17.4952 2.53136 17.3602 2.29114 17.12C2.05092 16.8798 1.91596 16.554 1.91596 16.2142V13.6523C1.91596 13.3126 2.05092 12.9868 2.29114 12.7466ZM12.1635 3.40474C12.1635 3.06501 12.2985 2.7392 12.5387 2.49897C12.779 2.25875 13.1048 2.12379 13.4445 2.12379H16.0064C16.3461 2.12379 16.6719 2.25875 16.9122 2.49897C17.1524 2.7392 17.2873 3.06501 17.2873 3.40474V5.96664C17.2873 6.30637 17.1524 6.63218 16.9122 6.8724C16.6719 7.11263 16.3461 7.24759 16.0064 7.24759H13.4445C13.1048 7.24759 12.779 7.11263 12.5387 6.8724C12.2985 6.63218 12.1635 6.30637 12.1635 5.96664V3.40474ZM12.1635 13.6523C12.1635 13.3126 12.2985 12.9868 12.5387 12.7466C12.779 12.5063 13.1048 12.3714 13.4445 12.3714H16.0064C16.3461 12.3714 16.6719 12.5063 16.9122 12.7466C17.1524 12.9868 17.2873 13.3126 17.2873 13.6523V16.2142C17.2873 16.554 17.1524 16.8798 16.9122 17.12C16.6719 17.3602 16.3461 17.4952 16.0064 17.4952H13.4445C13.1048 17.4952 12.779 17.3602 12.5387 17.12C12.2985 16.8798 12.1635 16.554 12.1635 16.2142V13.6523Z" stroke="white" stroke-width="2.5619"/>
</svg>
